# xmcd
#
# Track frame offsets:
#	150
#	10510
#	25080
#	39034
#	49726
#	57071
#	75252
#	88531
#	99006
#	109317
#	120476
#	138050
#
# Disc length: 2036 seconds
#
# Revision: 1
# Processed by: cddbd v1.5.2PL0 Copyright (c) Steve Scherf et al.
# Submitted via: EasyCDDAExtractor 5.0.6
#
DISCID=7307f20c
DTITLE=Kim Lenz - Follow Me
DYEAR=2013
DGENRE=Rock and Roll
TTITLE0=Pay Dearly
TTITLE1=Follow Me
TTITLE2=Dejay
TTITLE3=Tumble An Fall
TTITLE4=Whiplash
TTITLE5=Ghost Of You
TTITLE6=Cry Wolf
TTITLE7=Number One Reason
TTITLE8=Three-Cornered Heart
TTITLE9=Shadows Of The Old Bayou
TTITLE10=Right Here With Me
TTITLE11=Trust No One
EXTD=
EXTT0=
EXTT1=
EXTT2=
EXTT3=
EXTT4=
EXTT5=
EXTT6=
EXTT7=
EXTT8=
EXTT9=
EXTT10=
EXTT11=
PLAYORDER=
